<mxfile host="65bd71144e">
    <diagram id="hG0Wyj41N1r8YTa6EXz7" name="Page-1">
        <mxGraphModel dx="522" dy="552" grid="1" gridSize="10" guides="1" tooltips="1" connect="1" arrows="1" fold="1" page="1" pageScale="1" pageWidth="850" pageHeight="1100" math="0" shadow="0">
            <root>
                <mxCell id="0"/>
                <mxCell id="1" parent="0"/>
                <mxCell id="cD20SrhtgwTC-DeN6DwE-2" value="" style="rounded=0;whiteSpace=wrap;html=1;rotation=-90;" parent="1" vertex="1">
                    <mxGeometry x="-54.37" y="188.13" width="1003.75" height="671.87" as="geometry"/>
                </mxCell>
                <mxCell id="cD20SrhtgwTC-DeN6DwE-3" value="Youdemy-learning" style="text;strokeColor=none;fillColor=none;html=1;fontSize=24;fontStyle=1;verticalAlign=middle;align=center;" parent="1" vertex="1">
                    <mxGeometry x="353.75" y="30" width="187.5" height="40" as="geometry"/>
                </mxCell>
                <mxCell id="cD20SrhtgwTC-DeN6DwE-4" value="Parcourir les cours" style="ellipse;whiteSpace=wrap;html=1;" parent="1" vertex="1">
                    <mxGeometry x="238.75" y="120" width="120" height="40" as="geometry"/>
                </mxCell>
                <mxCell id="cD20SrhtgwTC-DeN6DwE-42" style="edgeStyle=none;html=1;exitX=0.5;exitY=0.5;exitDx=0;exitDy=0;exitPerimeter=0;" parent="1" source="cD20SrhtgwTC-DeN6DwE-5" target="cD20SrhtgwTC-DeN6DwE-24" edge="1">
                    <mxGeometry relative="1" as="geometry"/>
                </mxCell>
                <mxCell id="cD20SrhtgwTC-DeN6DwE-43" style="edgeStyle=none;html=1;exitX=0.5;exitY=0.5;exitDx=0;exitDy=0;exitPerimeter=0;" parent="1" source="cD20SrhtgwTC-DeN6DwE-5" target="cD20SrhtgwTC-DeN6DwE-23" edge="1">
                    <mxGeometry relative="1" as="geometry"/>
                </mxCell>
                <mxCell id="cD20SrhtgwTC-DeN6DwE-44" style="edgeStyle=none;html=1;exitX=0.5;exitY=0.5;exitDx=0;exitDy=0;exitPerimeter=0;" parent="1" source="cD20SrhtgwTC-DeN6DwE-5" target="cD20SrhtgwTC-DeN6DwE-22" edge="1">
                    <mxGeometry relative="1" as="geometry"/>
                </mxCell>
                <mxCell id="cD20SrhtgwTC-DeN6DwE-45" style="edgeStyle=none;html=1;exitX=0.5;exitY=0.5;exitDx=0;exitDy=0;exitPerimeter=0;" parent="1" source="cD20SrhtgwTC-DeN6DwE-5" target="cD20SrhtgwTC-DeN6DwE-4" edge="1">
                    <mxGeometry relative="1" as="geometry"/>
                </mxCell>
                <mxCell id="cD20SrhtgwTC-DeN6DwE-46" style="edgeStyle=none;html=1;exitX=0.5;exitY=0.5;exitDx=0;exitDy=0;exitPerimeter=0;" parent="1" source="cD20SrhtgwTC-DeN6DwE-5" target="cD20SrhtgwTC-DeN6DwE-18" edge="1">
                    <mxGeometry relative="1" as="geometry"/>
                </mxCell>
                <mxCell id="cD20SrhtgwTC-DeN6DwE-5" value="Étudiant" style="shape=umlActor;verticalLabelPosition=bottom;verticalAlign=top;html=1;outlineConnect=0;" parent="1" vertex="1">
                    <mxGeometry x="60" y="290" width="30" height="70" as="geometry"/>
                </mxCell>
                <mxCell id="cD20SrhtgwTC-DeN6DwE-39" style="edgeStyle=none;html=1;exitX=0.5;exitY=0.5;exitDx=0;exitDy=0;exitPerimeter=0;" parent="1" source="cD20SrhtgwTC-DeN6DwE-7" target="cD20SrhtgwTC-DeN6DwE-4" edge="1">
                    <mxGeometry relative="1" as="geometry"/>
                </mxCell>
                <mxCell id="cD20SrhtgwTC-DeN6DwE-40" style="edgeStyle=none;html=1;exitX=0.5;exitY=0.5;exitDx=0;exitDy=0;exitPerimeter=0;" parent="1" source="cD20SrhtgwTC-DeN6DwE-7" target="cD20SrhtgwTC-DeN6DwE-17" edge="1">
                    <mxGeometry relative="1" as="geometry"/>
                </mxCell>
                <mxCell id="cD20SrhtgwTC-DeN6DwE-41" style="edgeStyle=none;html=1;exitX=0.5;exitY=0.5;exitDx=0;exitDy=0;exitPerimeter=0;" parent="1" source="cD20SrhtgwTC-DeN6DwE-7" target="cD20SrhtgwTC-DeN6DwE-18" edge="1">
                    <mxGeometry relative="1" as="geometry"/>
                </mxCell>
                <mxCell id="2" value="" style="edgeStyle=none;html=1;" edge="1" parent="1" source="cD20SrhtgwTC-DeN6DwE-7" target="cD20SrhtgwTC-DeN6DwE-2">
                    <mxGeometry relative="1" as="geometry"/>
                </mxCell>
                <mxCell id="cD20SrhtgwTC-DeN6DwE-7" value="visiteur" style="shape=umlActor;verticalLabelPosition=bottom;verticalAlign=top;html=1;outlineConnect=0;" parent="1" vertex="1">
                    <mxGeometry x="60" y="100" width="30" height="70" as="geometry"/>
                </mxCell>
                <mxCell id="cD20SrhtgwTC-DeN6DwE-47" style="edgeStyle=none;html=1;exitX=0.5;exitY=0.5;exitDx=0;exitDy=0;exitPerimeter=0;" parent="1" source="cD20SrhtgwTC-DeN6DwE-8" target="cD20SrhtgwTC-DeN6DwE-21" edge="1">
                    <mxGeometry relative="1" as="geometry"/>
                </mxCell>
                <mxCell id="cD20SrhtgwTC-DeN6DwE-48" style="edgeStyle=none;html=1;exitX=0.5;exitY=0.5;exitDx=0;exitDy=0;exitPerimeter=0;" parent="1" source="cD20SrhtgwTC-DeN6DwE-8" target="cD20SrhtgwTC-DeN6DwE-11" edge="1">
                    <mxGeometry relative="1" as="geometry"/>
                </mxCell>
                <mxCell id="cD20SrhtgwTC-DeN6DwE-49" style="edgeStyle=none;html=1;exitX=0.5;exitY=0.5;exitDx=0;exitDy=0;exitPerimeter=0;" parent="1" source="cD20SrhtgwTC-DeN6DwE-8" target="cD20SrhtgwTC-DeN6DwE-29" edge="1">
                    <mxGeometry relative="1" as="geometry"/>
                </mxCell>
                <mxCell id="cD20SrhtgwTC-DeN6DwE-50" style="edgeStyle=none;html=1;exitX=0.5;exitY=0.5;exitDx=0;exitDy=0;exitPerimeter=0;" parent="1" source="cD20SrhtgwTC-DeN6DwE-8" target="cD20SrhtgwTC-DeN6DwE-30" edge="1">
                    <mxGeometry relative="1" as="geometry"/>
                </mxCell>
                <mxCell id="cD20SrhtgwTC-DeN6DwE-8" value="Professeur" style="shape=umlActor;verticalLabelPosition=bottom;verticalAlign=top;html=1;outlineConnect=0;" parent="1" vertex="1">
                    <mxGeometry x="50" y="480" width="40" height="80" as="geometry"/>
                </mxCell>
                <mxCell id="cD20SrhtgwTC-DeN6DwE-51" style="edgeStyle=none;html=1;exitX=0.5;exitY=0.5;exitDx=0;exitDy=0;exitPerimeter=0;" parent="1" source="cD20SrhtgwTC-DeN6DwE-9" target="cD20SrhtgwTC-DeN6DwE-36" edge="1">
                    <mxGeometry relative="1" as="geometry"/>
                </mxCell>
                <mxCell id="cD20SrhtgwTC-DeN6DwE-52" style="edgeStyle=none;html=1;exitX=0.5;exitY=0.5;exitDx=0;exitDy=0;exitPerimeter=0;" parent="1" source="cD20SrhtgwTC-DeN6DwE-9" target="cD20SrhtgwTC-DeN6DwE-34" edge="1">
                    <mxGeometry relative="1" as="geometry"/>
                </mxCell>
                <mxCell id="cD20SrhtgwTC-DeN6DwE-53" style="edgeStyle=none;html=1;exitX=0.5;exitY=0.5;exitDx=0;exitDy=0;exitPerimeter=0;" parent="1" source="cD20SrhtgwTC-DeN6DwE-9" target="cD20SrhtgwTC-DeN6DwE-33" edge="1">
                    <mxGeometry relative="1" as="geometry"/>
                </mxCell>
                <mxCell id="cD20SrhtgwTC-DeN6DwE-54" style="edgeStyle=none;html=1;exitX=0.5;exitY=0.5;exitDx=0;exitDy=0;exitPerimeter=0;" parent="1" source="cD20SrhtgwTC-DeN6DwE-9" target="cD20SrhtgwTC-DeN6DwE-32" edge="1">
                    <mxGeometry relative="1" as="geometry"/>
                </mxCell>
                <mxCell id="cD20SrhtgwTC-DeN6DwE-9" value="Administrateur" style="shape=umlActor;verticalLabelPosition=bottom;verticalAlign=top;html=1;outlineConnect=0;" parent="1" vertex="1">
                    <mxGeometry x="50" y="691.25" width="41.25" height="88.75" as="geometry"/>
                </mxCell>
                <mxCell id="cD20SrhtgwTC-DeN6DwE-11" value="Modifier un cours" style="ellipse;whiteSpace=wrap;html=1;" parent="1" vertex="1">
                    <mxGeometry x="242.81" y="550" width="130" height="40" as="geometry"/>
                </mxCell>
                <mxCell id="cD20SrhtgwTC-DeN6DwE-17" value="Créer un compte" style="ellipse;whiteSpace=wrap;html=1;" parent="1" vertex="1">
                    <mxGeometry x="227.51" y="170" width="142.49" height="40" as="geometry"/>
                </mxCell>
                <mxCell id="cD20SrhtgwTC-DeN6DwE-18" value="Rechercher des cours" style="ellipse;whiteSpace=wrap;html=1;" parent="1" vertex="1">
                    <mxGeometry x="233.75" y="220" width="136.25" height="40" as="geometry"/>
                </mxCell>
                <mxCell id="cD20SrhtgwTC-DeN6DwE-21" value="Créer un cours" style="ellipse;whiteSpace=wrap;html=1;" parent="1" vertex="1">
                    <mxGeometry x="238.75" y="500.01" width="138.12" height="40" as="geometry"/>
                </mxCell>
                <mxCell id="cD20SrhtgwTC-DeN6DwE-22" value="Accéder à mes cours" style="ellipse;whiteSpace=wrap;html=1;" parent="1" vertex="1">
                    <mxGeometry x="227.51" y="420" width="170" height="40" as="geometry"/>
                </mxCell>
                <mxCell id="cD20SrhtgwTC-DeN6DwE-23" value="S'inscrire à un cours" style="ellipse;whiteSpace=wrap;html=1;" parent="1" vertex="1">
                    <mxGeometry x="227.51" y="370" width="182.49" height="40" as="geometry"/>
                </mxCell>
                <mxCell id="cD20SrhtgwTC-DeN6DwE-24" value="Afficher les détails du cours" style="ellipse;whiteSpace=wrap;html=1;" parent="1" vertex="1">
                    <mxGeometry x="225.63" y="320" width="186.25" height="40" as="geometry"/>
                </mxCell>
                <mxCell id="cD20SrhtgwTC-DeN6DwE-29" value="Supprimer un cours" style="ellipse;whiteSpace=wrap;html=1;" parent="1" vertex="1">
                    <mxGeometry x="240" y="600" width="130" height="40" as="geometry"/>
                </mxCell>
                <mxCell id="cD20SrhtgwTC-DeN6DwE-30" value="Afficher les statistiques du cours" style="ellipse;whiteSpace=wrap;html=1;" parent="1" vertex="1">
                    <mxGeometry x="227.51" y="650" width="172.49" height="50" as="geometry"/>
                </mxCell>
                <mxCell id="cD20SrhtgwTC-DeN6DwE-32" value="Afficher les statistiques de la plateforme" style="ellipse;whiteSpace=wrap;html=1;" parent="1" vertex="1">
                    <mxGeometry x="210.48" y="920" width="204.06" height="50" as="geometry"/>
                </mxCell>
                <mxCell id="cD20SrhtgwTC-DeN6DwE-33" value="Gérer le contenu" style="ellipse;whiteSpace=wrap;html=1;" parent="1" vertex="1">
                    <mxGeometry x="225.63" y="860" width="142.49" height="50" as="geometry"/>
                </mxCell>
                <mxCell id="cD20SrhtgwTC-DeN6DwE-34" value="Gérer les utilisateurs" style="ellipse;whiteSpace=wrap;html=1;" parent="1" vertex="1">
                    <mxGeometry x="217.38" y="800" width="159" height="50" as="geometry"/>
                </mxCell>
                <mxCell id="cD20SrhtgwTC-DeN6DwE-36" value="Valider les comptes des professeurs" style="ellipse;whiteSpace=wrap;html=1;" parent="1" vertex="1">
                    <mxGeometry x="217.38" y="740" width="159" height="50" as="geometry"/>
                </mxCell>
                <mxCell id="cD20SrhtgwTC-DeN6DwE-37" value="Se deconnecter" style="ellipse;whiteSpace=wrap;html=1;" parent="1" vertex="1">
                    <mxGeometry x="620" y="440" width="130" height="50" as="geometry"/>
                </mxCell>
                <mxCell id="cD20SrhtgwTC-DeN6DwE-38" value="l'authentification" style="ellipse;whiteSpace=wrap;html=1;" parent="1" vertex="1">
                    <mxGeometry x="510" y="540" width="140" height="50" as="geometry"/>
                </mxCell>
                <mxCell id="cD20SrhtgwTC-DeN6DwE-59" value="" style="endArrow=classic;html=1;dashed=1;entryX=0;entryY=1;entryDx=0;entryDy=0;" parent="1" source="cD20SrhtgwTC-DeN6DwE-32" target="cD20SrhtgwTC-DeN6DwE-38" edge="1">
                    <mxGeometry width="50" height="50" relative="1" as="geometry">
                        <mxPoint x="491.25" y="810" as="sourcePoint"/>
                        <mxPoint x="541.25" y="760" as="targetPoint"/>
                    </mxGeometry>
                </mxCell>
                <mxCell id="cD20SrhtgwTC-DeN6DwE-65" value="&amp;lt;include&amp;gt;" style="edgeLabel;html=1;align=center;verticalAlign=middle;resizable=0;points=[];" parent="cD20SrhtgwTC-DeN6DwE-59" vertex="1" connectable="0">
                    <mxGeometry x="0.2037" y="1" relative="1" as="geometry">
                        <mxPoint as="offset"/>
                    </mxGeometry>
                </mxCell>
                <mxCell id="cD20SrhtgwTC-DeN6DwE-66" value="" style="endArrow=classic;html=1;dashed=1;" parent="1" source="cD20SrhtgwTC-DeN6DwE-33" target="cD20SrhtgwTC-DeN6DwE-38" edge="1">
                    <mxGeometry width="50" height="50" relative="1" as="geometry">
                        <mxPoint x="337.33710283677897" y="930.2653860510877" as="sourcePoint"/>
                        <mxPoint x="540.5025253169417" y="592.6776695296635" as="targetPoint"/>
                    </mxGeometry>
                </mxCell>
                <mxCell id="cD20SrhtgwTC-DeN6DwE-67" value="&amp;lt;include&amp;gt;" style="edgeLabel;html=1;align=center;verticalAlign=middle;resizable=0;points=[];" parent="cD20SrhtgwTC-DeN6DwE-66" vertex="1" connectable="0">
                    <mxGeometry x="0.2037" y="1" relative="1" as="geometry">
                        <mxPoint as="offset"/>
                    </mxGeometry>
                </mxCell>
                <mxCell id="cD20SrhtgwTC-DeN6DwE-68" value="" style="endArrow=classic;html=1;dashed=1;" parent="1" source="cD20SrhtgwTC-DeN6DwE-34" target="cD20SrhtgwTC-DeN6DwE-38" edge="1">
                    <mxGeometry width="50" height="50" relative="1" as="geometry">
                        <mxPoint x="347.33710283677897" y="940.2653860510877" as="sourcePoint"/>
                        <mxPoint x="550.5025253169417" y="602.6776695296635" as="targetPoint"/>
                    </mxGeometry>
                </mxCell>
                <mxCell id="cD20SrhtgwTC-DeN6DwE-69" value="&amp;lt;include&amp;gt;" style="edgeLabel;html=1;align=center;verticalAlign=middle;resizable=0;points=[];" parent="cD20SrhtgwTC-DeN6DwE-68" vertex="1" connectable="0">
                    <mxGeometry x="0.2037" y="1" relative="1" as="geometry">
                        <mxPoint as="offset"/>
                    </mxGeometry>
                </mxCell>
                <mxCell id="cD20SrhtgwTC-DeN6DwE-70" value="" style="endArrow=classic;html=1;dashed=1;" parent="1" source="cD20SrhtgwTC-DeN6DwE-36" target="cD20SrhtgwTC-DeN6DwE-38" edge="1">
                    <mxGeometry width="50" height="50" relative="1" as="geometry">
                        <mxPoint x="357.33710283677897" y="950.2653860510877" as="sourcePoint"/>
                        <mxPoint x="560.5025253169417" y="612.6776695296635" as="targetPoint"/>
                    </mxGeometry>
                </mxCell>
                <mxCell id="cD20SrhtgwTC-DeN6DwE-71" value="&amp;lt;include&amp;gt;" style="edgeLabel;html=1;align=center;verticalAlign=middle;resizable=0;points=[];" parent="cD20SrhtgwTC-DeN6DwE-70" vertex="1" connectable="0">
                    <mxGeometry x="0.2037" y="1" relative="1" as="geometry">
                        <mxPoint as="offset"/>
                    </mxGeometry>
                </mxCell>
                <mxCell id="cD20SrhtgwTC-DeN6DwE-72" value="" style="endArrow=classic;html=1;dashed=1;" parent="1" source="cD20SrhtgwTC-DeN6DwE-30" target="cD20SrhtgwTC-DeN6DwE-38" edge="1">
                    <mxGeometry width="50" height="50" relative="1" as="geometry">
                        <mxPoint x="367.33710283677897" y="960.2653860510877" as="sourcePoint"/>
                        <mxPoint x="570.5025253169417" y="622.6776695296635" as="targetPoint"/>
                    </mxGeometry>
                </mxCell>
                <mxCell id="cD20SrhtgwTC-DeN6DwE-73" value="&amp;lt;include&amp;gt;" style="edgeLabel;html=1;align=center;verticalAlign=middle;resizable=0;points=[];" parent="cD20SrhtgwTC-DeN6DwE-72" vertex="1" connectable="0">
                    <mxGeometry x="0.2037" y="1" relative="1" as="geometry">
                        <mxPoint as="offset"/>
                    </mxGeometry>
                </mxCell>
                <mxCell id="cD20SrhtgwTC-DeN6DwE-74" value="" style="endArrow=classic;html=1;dashed=1;" parent="1" source="cD20SrhtgwTC-DeN6DwE-29" target="cD20SrhtgwTC-DeN6DwE-38" edge="1">
                    <mxGeometry width="50" height="50" relative="1" as="geometry">
                        <mxPoint x="373.25066008069825" y="664.5267951484386" as="sourcePoint"/>
                        <mxPoint x="544.2466090757739" y="593.9205751942291" as="targetPoint"/>
                    </mxGeometry>
                </mxCell>
                <mxCell id="cD20SrhtgwTC-DeN6DwE-75" value="&amp;lt;include&amp;gt;" style="edgeLabel;html=1;align=center;verticalAlign=middle;resizable=0;points=[];" parent="cD20SrhtgwTC-DeN6DwE-74" vertex="1" connectable="0">
                    <mxGeometry x="0.2037" y="1" relative="1" as="geometry">
                        <mxPoint as="offset"/>
                    </mxGeometry>
                </mxCell>
                <mxCell id="cD20SrhtgwTC-DeN6DwE-76" value="" style="endArrow=classic;html=1;dashed=1;" parent="1" source="cD20SrhtgwTC-DeN6DwE-11" target="cD20SrhtgwTC-DeN6DwE-38" edge="1">
                    <mxGeometry width="50" height="50" relative="1" as="geometry">
                        <mxPoint x="383.25066008069825" y="674.5267951484386" as="sourcePoint"/>
                        <mxPoint x="554.2466090757739" y="603.9205751942291" as="targetPoint"/>
                    </mxGeometry>
                </mxCell>
                <mxCell id="cD20SrhtgwTC-DeN6DwE-77" value="&amp;lt;include&amp;gt;" style="edgeLabel;html=1;align=center;verticalAlign=middle;resizable=0;points=[];" parent="cD20SrhtgwTC-DeN6DwE-76" vertex="1" connectable="0">
                    <mxGeometry x="0.2037" y="1" relative="1" as="geometry">
                        <mxPoint as="offset"/>
                    </mxGeometry>
                </mxCell>
                <mxCell id="cD20SrhtgwTC-DeN6DwE-78" value="" style="endArrow=classic;html=1;dashed=1;" parent="1" source="cD20SrhtgwTC-DeN6DwE-21" target="cD20SrhtgwTC-DeN6DwE-38" edge="1">
                    <mxGeometry width="50" height="50" relative="1" as="geometry">
                        <mxPoint x="393.25066008069825" y="684.5267951484386" as="sourcePoint"/>
                        <mxPoint x="564.2466090757739" y="613.9205751942291" as="targetPoint"/>
                    </mxGeometry>
                </mxCell>
                <mxCell id="cD20SrhtgwTC-DeN6DwE-79" value="&amp;lt;include&amp;gt;" style="edgeLabel;html=1;align=center;verticalAlign=middle;resizable=0;points=[];" parent="cD20SrhtgwTC-DeN6DwE-78" vertex="1" connectable="0">
                    <mxGeometry x="0.2037" y="1" relative="1" as="geometry">
                        <mxPoint as="offset"/>
                    </mxGeometry>
                </mxCell>
                <mxCell id="cD20SrhtgwTC-DeN6DwE-80" value="" style="endArrow=classic;html=1;dashed=1;" parent="1" source="cD20SrhtgwTC-DeN6DwE-22" target="cD20SrhtgwTC-DeN6DwE-38" edge="1">
                    <mxGeometry width="50" height="50" relative="1" as="geometry">
                        <mxPoint x="377.9512748292309" y="539.8407853086242" as="sourcePoint"/>
                        <mxPoint x="526.2358670331071" y="564.6852137847673" as="targetPoint"/>
                    </mxGeometry>
                </mxCell>
                <mxCell id="cD20SrhtgwTC-DeN6DwE-81" value="&amp;lt;include&amp;gt;" style="edgeLabel;html=1;align=center;verticalAlign=middle;resizable=0;points=[];" parent="cD20SrhtgwTC-DeN6DwE-80" vertex="1" connectable="0">
                    <mxGeometry x="0.2037" y="1" relative="1" as="geometry">
                        <mxPoint as="offset"/>
                    </mxGeometry>
                </mxCell>
                <mxCell id="cD20SrhtgwTC-DeN6DwE-82" value="" style="endArrow=classic;html=1;dashed=1;exitX=1;exitY=1;exitDx=0;exitDy=0;" parent="1" source="cD20SrhtgwTC-DeN6DwE-23" target="cD20SrhtgwTC-DeN6DwE-38" edge="1">
                    <mxGeometry width="50" height="50" relative="1" as="geometry">
                        <mxPoint x="387.9512748292309" y="549.8407853086242" as="sourcePoint"/>
                        <mxPoint x="540" y="570" as="targetPoint"/>
                    </mxGeometry>
                </mxCell>
                <mxCell id="cD20SrhtgwTC-DeN6DwE-83" value="&amp;lt;include&amp;gt;" style="edgeLabel;html=1;align=center;verticalAlign=middle;resizable=0;points=[];" parent="cD20SrhtgwTC-DeN6DwE-82" vertex="1" connectable="0">
                    <mxGeometry x="0.2037" y="1" relative="1" as="geometry">
                        <mxPoint as="offset"/>
                    </mxGeometry>
                </mxCell>
                <mxCell id="cD20SrhtgwTC-DeN6DwE-84" value="" style="endArrow=classic;html=1;dashed=1;entryX=0.5;entryY=0;entryDx=0;entryDy=0;" parent="1" source="cD20SrhtgwTC-DeN6DwE-24" target="cD20SrhtgwTC-DeN6DwE-38" edge="1">
                    <mxGeometry width="50" height="50" relative="1" as="geometry">
                        <mxPoint x="393.18816299704895" y="414.1611347246261" as="sourcePoint"/>
                        <mxPoint x="561.9426816186296" y="552.0960666274527" as="targetPoint"/>
                    </mxGeometry>
                </mxCell>
                <mxCell id="cD20SrhtgwTC-DeN6DwE-85" value="&amp;lt;include&amp;gt;" style="edgeLabel;html=1;align=center;verticalAlign=middle;resizable=0;points=[];" parent="cD20SrhtgwTC-DeN6DwE-84" vertex="1" connectable="0">
                    <mxGeometry x="0.2037" y="1" relative="1" as="geometry">
                        <mxPoint as="offset"/>
                    </mxGeometry>
                </mxCell>
                <mxCell id="cD20SrhtgwTC-DeN6DwE-86" value="" style="endArrow=classic;html=1;dashed=1;" parent="1" source="cD20SrhtgwTC-DeN6DwE-37" target="cD20SrhtgwTC-DeN6DwE-38" edge="1">
                    <mxGeometry width="50" height="50" relative="1" as="geometry">
                        <mxPoint x="353.8866083857506" y="369.2579374603454" as="sourcePoint"/>
                        <mxPoint x="590" y="550" as="targetPoint"/>
                    </mxGeometry>
                </mxCell>
                <mxCell id="cD20SrhtgwTC-DeN6DwE-87" value="&amp;lt;extand&amp;gt;" style="edgeLabel;html=1;align=center;verticalAlign=middle;resizable=0;points=[];" parent="cD20SrhtgwTC-DeN6DwE-86" vertex="1" connectable="0">
                    <mxGeometry x="0.2037" y="1" relative="1" as="geometry">
                        <mxPoint as="offset"/>
                    </mxGeometry>
                </mxCell>
            </root>
        </mxGraphModel>
    </diagram>
</mxfile>